<?xml version="1.0" encoding="UTF-8"?>
<!DOCTYPE svg PUBLIC "-//W3C//DTD SVG 1.1//EN" "http://www.w3.org/Graphics/SVG/1.1/DTD/svg11.dtd">
<!-- Creator: CorelDRAW -->
<svg xmlns="http://www.w3.org/2000/svg" xml:space="preserve" width="300px" height="300px" style="shape-rendering:geometricPrecision; text-rendering:geometricPrecision; image-rendering:optimizeQuality; fill-rule:evenodd; clip-rule:evenodd"
viewBox="0 0 300 300">
 <defs>
  <style type="text/css">
   <![CDATA[
    .fil0 {fill:black}
   ]]>
  </style>
 </defs>
 <g id="Camada_x0020_1">
  <metadata id="CorelCorpID_0Corel-Layer"/>
  <g id="_117902024">
   <g>
    <path id="_117749264" class="fil0" d="M46.1976 134.802l4.2873 0 11.4099 0 24.9918 0c2.3583,0 4.2873,1.929 4.2873,4.2873l0 15.105c0,2.3583 -1.929,4.2876 -4.2873,4.2876l-24.9918 0 0 6.7155 -15.6972 0 0 -11.0031 0 -15.105 0 -4.2873zm15.6972 7.7754l9.4914 0c1.1829,0 2.1501,0.9675 2.1501,2.1501l0 2.5062c0,1.1823 -0.9675,2.1501 -2.1501,2.1501l-9.4914 0 0 -6.8064z"/>
    <path id="_117749408" class="fil0" d="M101.836 165.198l29.8995 0c3.7296,0 6.7812,-3.0513 6.7812,-6.7809l0 -23.6145 -16.9995 0 0 21.2928c0,1.1829 -0.969,2.1501 -2.1501,2.1501l-5.1627 0c-1.1811,0 -2.1501,-0.9693 -2.1501,-2.1501l0 -21.2928 -16.9992 0 0 23.6145c0,3.7296 3.0513,6.7809 6.7809,6.7809z"/>
    <polygon id="_117749288" class="fil0" points="182.659,134.802 190.643,134.802 197.981,134.802 197.981,165.198 182.659,165.198 182.659,151.496 176.107,165.198 165.936,165.198 159.384,151.496 159.384,165.198 144.063,165.198 144.063,134.802 151.401,134.802 159.384,134.802 166.723,134.802 171.022,143.794 175.322,134.802 "/>
    <path id="_117749672" class="fil0" d="M235.278 158.499l-15.8469 0 -3.2034 6.6987 -15.3213 0 14.5347 -30.3954 8.505 0 6.8163 0 8.5044 0 14.5353 30.3954 -15.321 0 -3.2031 -6.6987zm-7.9236 -16.5693l-3.6627 7.6593 7.3257 0 -3.663 -7.6593z"/>
   </g>
   <g>
    <g>
     <rect id="_117749432" class="fil0" x="46.3096" y="112.732" width="9.01462" height="9.01462"/>
     <rect id="_117749096" class="fil0" x="55.3242" y="121.746" width="9.01462" height="9.01462"/>
     <rect id="_117749000" class="fil0" x="64.3388" y="112.732" width="9.01462" height="9.01462"/>
     <rect id="_117748832" class="fil0" x="82.368" y="112.732" width="9.01462" height="9.01462"/>
     <rect id="_117748760" class="fil0" x="100.397" y="112.732" width="9.01462" height="9.01462"/>
     <rect id="_117748688" class="fil0" x="118.427" y="112.732" width="9.01462" height="9.01462"/>
     <rect id="_117748592" class="fil0" x="136.456" y="112.732" width="9.01462" height="9.01462"/>
     <rect id="_117748544" class="fil0" x="154.485" y="112.732" width="9.01462" height="9.01462"/>
     <rect id="_117748496" class="fil0" x="172.514" y="112.732" width="9.01462" height="9.01462"/>
     <rect id="_117748568" class="fil0" x="190.544" y="112.732" width="9.01462" height="9.01462"/>
     <rect id="_117749192" class="fil0" x="208.573" y="112.732" width="9.01462" height="9.01462"/>
     <rect id="_117749072" class="fil0" x="226.602" y="112.732" width="9.01462" height="9.01462"/>
     <rect id="_117739408" class="fil0" x="244.631" y="112.732" width="9.01462" height="9.01462"/>
     <rect id="_117739264" class="fil0" x="73.3534" y="121.746" width="9.01462" height="9.01462"/>
     <rect id="_117739288" class="fil0" x="91.3827" y="121.746" width="9.01462" height="9.01462"/>
     <rect id="_117738952" class="fil0" x="109.412" y="121.746" width="9.01462" height="9.01462"/>
     <rect id="_117738928" class="fil0" x="127.441" y="121.746" width="9.01462" height="9.01462"/>
     <rect id="_117738736" class="fil0" x="145.47" y="121.746" width="9.01462" height="9.01462"/>
     <rect id="_117738496" class="fil0" x="163.5" y="121.746" width="9.01462" height="9.01462"/>
     <rect id="_117739120" class="fil0" x="181.529" y="121.746" width="9.01462" height="9.01462"/>
     <rect id="_117739096" class="fil0" x="199.558" y="121.746" width="9.01462" height="9.01462"/>
     <rect id="_117738520" class="fil0" x="217.587" y="121.746" width="9.01462" height="9.01462"/>
     <rect id="_117738640" class="fil0" x="235.617" y="121.746" width="9.01462" height="9.01462"/>
    </g>
    <g>
     <rect id="_117738616" class="fil0" x="46.3096" y="178.253" width="9.01462" height="9.01462"/>
     <rect id="_117738784" class="fil0" x="55.3242" y="169.239" width="9.01462" height="9.01462"/>
     <rect id="_117281968" class="fil0" x="64.3388" y="178.253" width="9.01462" height="9.01462"/>
     <rect id="_117281944" class="fil0" x="82.368" y="178.253" width="9.01462" height="9.01462"/>
     <rect id="_117281920" class="fil0" x="100.397" y="178.253" width="9.01462" height="9.01462"/>
     <rect id="_117281752" class="fil0" x="118.427" y="178.253" width="9.01462" height="9.01462"/>
     <rect id="_117281632" class="fil0" x="136.456" y="178.253" width="9.01462" height="9.01462"/>
     <rect id="_117281536" class="fil0" x="154.485" y="178.253" width="9.01462" height="9.01462"/>
     <rect id="_117281464" class="fil0" x="172.514" y="178.253" width="9.01462" height="9.01462"/>
     <rect id="_117281368" class="fil0" x="190.544" y="178.253" width="9.01462" height="9.01462"/>
     <rect id="_117281608" class="fil0" x="208.573" y="178.253" width="9.01462" height="9.01462"/>
     <rect id="_117281320" class="fil0" x="226.602" y="178.253" width="9.01462" height="9.01462"/>
     <rect id="_117281872" class="fil0" x="244.631" y="178.253" width="9.01462" height="9.01462"/>
     <rect id="_117281200" class="fil0" x="73.3534" y="169.239" width="9.01462" height="9.01462"/>
     <rect id="_117281344" class="fil0" x="91.3827" y="169.239" width="9.01462" height="9.01462"/>
     <rect id="_117281704" class="fil0" x="109.412" y="169.239" width="9.01462" height="9.01462"/>
     <rect id="_117902552" class="fil0" x="127.441" y="169.239" width="9.01462" height="9.01462"/>
     <rect id="_117902432" class="fil0" x="145.47" y="169.239" width="9.01462" height="9.01462"/>
     <rect id="_117902408" class="fil0" x="163.5" y="169.239" width="9.01462" height="9.01462"/>
     <rect id="_117902216" class="fil0" x="181.529" y="169.239" width="9.01462" height="9.01462"/>
     <rect id="_117902168" class="fil0" x="199.558" y="169.239" width="9.01462" height="9.01462"/>
     <rect id="_117901976" class="fil0" x="217.587" y="169.239" width="9.01462" height="9.01462"/>
     <rect id="_117901880" class="fil0" x="235.617" y="169.239" width="9.01462" height="9.01462"/>
    </g>
   </g>
  </g>
 </g>
</svg>
